<svg width="100" height="100" xmlns="http://www.w3.org/2000/svg">

 <g>
  <title>background</title>
  <rect fill="none" id="canvas_background" height="402" width="582" y="-1" x="-1"/>
 </g>
 <g>
  <title>Layer 1</title>
  <g stroke="null" id="svg_1">
   <path stroke="null" id="svg_2" d="m92.116267,0.074068l-12.264008,8.280773l-4.168472,36.09178l-5.601424,-1.379155c-2.871069,-9.474384 -10.791036,-16.295649 -20.136211,-16.295649c-9.306446,0 -17.198013,6.765748 -20.097482,16.180232l-6.070039,1.494571l-4.167181,-36.09178l-12.264008,-8.280773l-7.531392,50.33915l7.961278,49.49471l11.618534,-7.547366l4.425371,-35.269254l5.664681,0.804994l0.010328,-0.33164c2.562532,10.05585 10.740689,17.417673 20.452493,17.417673c9.621437,0 17.745375,-7.22157 20.387946,-17.137167l5.307088,-0.75386l4.425371,35.269254l11.618534,7.547366l7.961278,-49.49471l-7.532683,-50.33915zm-72.906303,45.497499l-0.950138,0.233755c-0.730677,-1.634824 -1.804746,-2.676495 -3.038892,-2.676495c-0.007746,0 -0.015491,0.004383 -0.023237,0.004383l1.209619,-24.446395l2.802649,26.884753zm-3.919319,-30.417376l-1.37486,27.786171l-3.565599,-32.252353l4.940459,4.466182zm-5.805394,-0.524488l3.32161,30.04629c-0.920446,1.322177 -1.519446,3.385065 -1.583994,5.781055l-7.260293,-0.235216l5.522677,-35.592128zm-5.481366,37.056019l7.251256,0.233755c0.153623,2.282034 0.788769,4.230966 1.727289,5.426039l-2.816849,33.482489l-6.161696,-39.142283zm7.473299,38.990343l2.528968,-30.088658l1.330968,25.822628l-3.859935,4.26603zm4.931422,-8.556896l-1.210909,-23.496766c0.007746,0 0.015491,0.004383 0.023237,0.004383c1.151526,0 2.171375,-0.895574 2.896888,-2.343394l1.155399,0.162168l-2.864614,25.673609zm25.860275,-11.801708c-0.757787,0 -1.372278,-0.695421 -1.372278,-1.55301s0.614491,-1.55301 1.372278,-1.55301s1.372278,0.695421 1.372278,1.55301s-0.614491,1.55301 -1.372278,1.55301zm15.360993,0c-0.757787,0 -1.372278,-0.695421 -1.372278,-1.55301s0.614491,-1.55301 1.372278,-1.55301s1.372278,0.695421 1.372278,1.55301s-0.614491,1.55301 -1.372278,1.55301zm-7.681142,-4.88402c-6.965957,0 -12.631929,-6.412193 -12.631929,-14.294121c0,-7.881928 5.667263,-14.294121 12.631929,-14.294121s12.631929,6.412193 12.631929,14.294121c0.001291,7.881928 -5.665972,14.294121 -12.631929,14.294121zm44.588062,-15.195539l-6.773605,0.219145c-0.064547,-2.394528 -0.663547,-4.457417 -1.583994,-5.781055l3.630146,-32.829436l4.727453,38.391345zm-5.986127,-38.763892l-3.477815,31.466352l-1.341295,-27.109742l4.81911,-4.35661zm-5.718901,12.307203l0.956593,19.351996c-0.007746,0 -0.015491,-0.004383 -0.023237,-0.004383c-1.209619,0 -2.27336,0.986154 -3.002746,2.566923l-0.210425,-0.051134l2.279815,-21.863402zm-2.339198,32.623439l0.42214,-0.0599c0.720349,1.411296 1.718252,2.283495 2.851705,2.283495c0.007746,0 0.015491,-0.004383 0.023237,-0.004383l-0.961756,18.69456l-2.335325,-20.913772zm3.264808,29.257367l-0.046474,-0.414915l1.270293,-24.659697l2.448929,29.133184l-3.672748,-4.058572zm5.672427,6.269018l-0.569308,-0.629678l-2.855578,-33.955843c0.938519,-1.195073 1.573666,-3.144005 1.727289,-5.426039l6.768442,-0.217684l-5.070845,40.229244z"/>
   <path stroke="null" id="svg_3" d="m45.230318,51.868343l-6.589,0c0.14975,2.987682 1.201873,5.69924 2.858159,7.800114l4.631922,-5.243418c-0.484106,-0.731946 -0.797806,-1.604144 -0.901082,-2.556696z"/>
   <path stroke="null" id="svg_4" d="m42.412178,60.701362c1.856384,1.872962 4.252384,3.065113 6.892373,3.233125l0,-7.393964c-0.848153,-0.131487 -1.62014,-0.508417 -2.265614,-1.075273l-4.626759,5.236113z"/>
   <path stroke="null" id="svg_5" d="m46.188201,47.9135l-4.688724,-5.304779c-1.657578,2.099413 -2.7097,4.810971 -2.85945,7.800114l6.601909,0c0.125222,-0.933559 0.455705,-1.780921 0.946265,-2.495335z"/>
   <path stroke="null" id="svg_6" d="m47.106066,46.8879c0.632565,-0.534715 1.380024,-0.885347 2.197194,-1.012452l0,-7.532757c-2.639989,0.169472 -5.035989,1.358701 -6.891082,3.233125l4.693888,5.312084z"/>
   <path stroke="null" id="svg_7" d="m53.767359,54.425039l4.631922,5.243418c1.656287,-2.100874 2.708409,-4.812432 2.858159,-7.800114l-6.589,0c-0.103276,0.952552 -0.418267,1.82475 -0.901082,2.556696z"/>
   <path stroke="null" id="svg_8" d="m57.48529,41.574355c-1.855093,-1.874423 -4.251093,-3.063652 -6.891082,-3.233125l0,7.532757c0.81717,0.125643 1.564629,0.477737 2.197194,1.012452l4.693888,-5.312084z"/>
   <path stroke="null" id="svg_9" d="m53.709266,47.9135c0.49056,0.714414 0.822334,1.561776 0.944974,2.495335l6.601909,0c-0.14975,-2.987682 -1.201873,-5.700701 -2.85945,-7.800114l-4.687433,5.304779z"/>
   <path stroke="null" id="svg_10" d="m50.594208,56.541983l0,7.393964c2.639989,-0.168011 5.035989,-1.360162 6.892373,-3.233125l-4.626759,-5.236113c-0.645474,0.566856 -1.41617,0.943786 -2.265614,1.075273z"/>
  </g>
  <ellipse ry="10" rx="1" id="svg_11" cy="39.068228" cx="26.32965" stroke-width="2" stroke="#000" fill="#fff"/>
  <ellipse ry="10" rx="1" id="svg_12" cy="38.818229" cx="72.896598" stroke-width="2" stroke="#000" fill="#fff"/>
  <ellipse ry="1" rx="2.999987" id="svg_14" cy="33.608316" cx="26.32965" fill-opacity="null" stroke-opacity="null" stroke-width="2" stroke="#000" fill="#fff"/>
  <ellipse ry="1" rx="2.999987" id="svg_15" cy="33.858315" cx="72.872204" fill-opacity="null" stroke-opacity="null" stroke-width="2" stroke="#000" fill="#fff"/>
 </g>
</svg>
